# xmcd
#
# Track frame offsets:
#	150
#	27122
#	46737
#	78582
#	103207
#	122582
#	153300
#	181235
#	209695
#	237515
#	261152
#
# Disc length: 3995 seconds
#
# Revision: 0
# Processed by: cddbd v1.5.1PL0 Copyright (c) Steve Scherf et al.
# Submitted via: dBpowerAMP V4.0
#
DISCID=910f990b
DTITLE=The Archies - The Archies
DYEAR=1900
DGENRE=Rock and Roll
TTITLE0=Sugar Sugar
TTITLE1=Feelin' So Good
TTITLE2=Melody Hill
TTITLE3=Rock 'N' Roll Music
TTITLE4=Kissin'
TTITLE5=Don't Touch My Guitar
TTITLE6=You Little Angel You
TTITLE7=Bicycles Roller Skates
TTITLE8=Hot Dog
TTITLE9=Inside Out, Upside Down
TTITLE10=Who's Your Baby
EXTD=The Archies\nsubmitted by Steven J
EXTT0=
EXTT1=
EXTT2=
EXTT3=
EXTT4=
EXTT5=
EXTT6=
EXTT7=
EXTT8=
EXTT9=
EXTT10=
PLAYORDER=
